<?xml version="1.0" encoding="UTF-8" standalone="no"?>
<!DOCTYPE svg PUBLIC "-//W3C//DTD SVG 1.1//EN"
 "http://www.w3.org/Graphics/SVG/1.1/DTD/svg11.dtd">
<!-- Generated by graphviz version 2.43.0 (0)
 -->
<!-- Title: pastafarianism Pages: 1 -->
<svg width="559pt" height="228pt"
 viewBox="0.00 0.00 559.36 228.00" xmlns="http://www.w3.org/2000/svg" xmlns:xlink="http://www.w3.org/1999/xlink">
<g id="graph0" class="graph" transform="scale(1 1) rotate(0) translate(4 224)">
<title>pastafarianism</title>
<polygon fill="white" stroke="transparent" points="-4,4 -4,-224 555.36,-224 555.36,4 -4,4"/>
<!-- Root -->
<g id="node1" class="node">
<title>Root</title>
<polygon fill="gold" stroke="black" points="291.39,-220 159.54,-220 125.63,-164 257.47,-164 291.39,-220"/>
<text text-anchor="middle" x="208.51" y="-194.8" font-family="Times,serif" font-size="9.00">⚡ Root</text>
<text text-anchor="middle" x="208.51" y="-184.8" font-family="Times,serif" font-size="9.00">SuccessOnAll</text>
</g>
<!-- InitBlackboard -->
<g id="node2" class="node">
<title>InitBlackboard</title>
<ellipse fill="gray" stroke="black" cx="133.51" cy="-100" rx="49.8" ry="18"/>
<text text-anchor="middle" x="133.51" y="-97.8" font-family="Times,serif" font-size="9.00">InitBlackboard</text>
</g>
<!-- Root&#45;&gt;InitBlackboard -->
<g id="edge1" class="edge">
<title>Root&#45;&gt;InitBlackboard</title>
<path fill="none" stroke="black" d="M186.01,-164C175.77,-151.71 163.75,-137.29 153.79,-125.34"/>
<polygon fill="black" stroke="black" points="156.37,-122.97 147.28,-117.52 150.99,-127.45 156.37,-122.97"/>
</g>
<!-- Sensors -->
<g id="node3" class="node">
<title>Sensors</title>
<polygon fill="gold" stroke="black" points="367.39,-128 235.54,-128 201.63,-72 333.47,-72 367.39,-128"/>
<text text-anchor="middle" x="284.51" y="-102.8" font-family="Times,serif" font-size="9.00">⚡ Sensors</text>
<text text-anchor="middle" x="284.51" y="-92.8" font-family="Times,serif" font-size="9.00">SuccessOnAll</text>
</g>
<!-- Root&#45;&gt;Sensors -->
<g id="edge2" class="edge">
<title>Root&#45;&gt;Sensors</title>
<path fill="none" stroke="black" d="M231.31,-164C238.76,-155.18 247.14,-145.26 255,-135.94"/>
<polygon fill="black" stroke="black" points="257.68,-138.19 261.46,-128.29 252.33,-133.68 257.68,-138.19"/>
</g>
<!-- Heading Subscriber -->
<g id="node4" class="node">
<title>Heading Subscriber</title>
<ellipse fill="gray" stroke="black" cx="63.51" cy="-18" rx="63.52" ry="18"/>
<text text-anchor="middle" x="63.51" y="-15.8" font-family="Times,serif" font-size="9.00">Heading Subscriber</text>
</g>
<!-- Sensors&#45;&gt;Heading Subscriber -->
<g id="edge3" class="edge">
<title>Sensors&#45;&gt;Heading Subscriber</title>
<path fill="none" stroke="black" d="M209.69,-71.92C176.84,-60.02 139.27,-46.43 110.45,-35.99"/>
<polygon fill="black" stroke="black" points="111.62,-32.7 101.03,-32.58 109.24,-39.28 111.62,-32.7"/>
</g>
<!-- Detected Subscriber -->
<g id="node5" class="node">
<title>Detected Subscriber</title>
<ellipse fill="gray" stroke="black" cx="210.51" cy="-18" rx="65.48" ry="18"/>
<text text-anchor="middle" x="210.51" y="-15.8" font-family="Times,serif" font-size="9.00">Detected Subscriber</text>
</g>
<!-- Sensors&#45;&gt;Detected Subscriber -->
<g id="edge4" class="edge">
<title>Sensors&#45;&gt;Detected Subscriber</title>
<path fill="none" stroke="black" d="M259.46,-71.92C250.89,-62.66 241.38,-52.37 233.03,-43.34"/>
<polygon fill="black" stroke="black" points="235.4,-40.76 226.04,-35.79 230.26,-45.51 235.4,-40.76"/>
</g>
<!-- PX Mode Subscriber -->
<g id="node6" class="node">
<title>PX Mode Subscriber</title>
<ellipse fill="gray" stroke="black" cx="358.51" cy="-18" rx="64.83" ry="18"/>
<text text-anchor="middle" x="358.51" y="-15.8" font-family="Times,serif" font-size="9.00">PX Mode Subscriber</text>
</g>
<!-- Sensors&#45;&gt;PX Mode Subscriber -->
<g id="edge5" class="edge">
<title>Sensors&#45;&gt;PX Mode Subscriber</title>
<path fill="none" stroke="black" d="M309.56,-71.92C318.12,-62.66 327.64,-52.37 335.99,-43.34"/>
<polygon fill="black" stroke="black" points="338.75,-45.51 342.97,-35.79 333.61,-40.76 338.75,-45.51"/>
</g>
<!-- Print Blackboard -->
<g id="node7" class="node">
<title>Print Blackboard</title>
<ellipse fill="gray" stroke="black" cx="496.51" cy="-18" rx="54.7" ry="18"/>
<text text-anchor="middle" x="496.51" y="-15.8" font-family="Times,serif" font-size="9.00">Print Blackboard</text>
</g>
<!-- Sensors&#45;&gt;Print Blackboard -->
<g id="edge6" class="edge">
<title>Sensors&#45;&gt;Print Blackboard</title>
<path fill="none" stroke="black" d="M337.73,-78.92C373.12,-65.56 419.04,-48.23 452.39,-35.65"/>
<polygon fill="black" stroke="black" points="453.76,-38.87 461.88,-32.07 451.29,-32.32 453.76,-38.87"/>
</g>
</g>
</svg>
