<?xml version="1.0" encoding="UTF-8" standalone="no"?>
<!DOCTYPE svg PUBLIC "-//W3C//DTD SVG 1.1//EN"
 "http://www.w3.org/Graphics/SVG/1.1/DTD/svg11.dtd">
<!-- Generated by graphviz version 2.43.0 (0)
 -->
<!-- Title: pastafarianism Pages: 1 -->
<svg width="542pt" height="352pt"
 viewBox="0.00 0.00 541.51 352.00" xmlns="http://www.w3.org/2000/svg" xmlns:xlink="http://www.w3.org/1999/xlink">
<g id="graph0" class="graph" transform="scale(1 1) rotate(0) translate(4 348)">
<title>pastafarianism</title>
<polygon fill="white" stroke="transparent" points="-4,4 -4,-348 537.51,-348 537.51,4 -4,4"/>
<!-- Root -->
<g id="node1" class="node">
<title>Root</title>
<polygon fill="gold" stroke="black" points="351.66,-344 219.81,-344 185.9,-288 317.74,-288 351.66,-344"/>
<text text-anchor="middle" x="268.78" y="-318.8" font-family="Times,serif" font-size="9.00">⚡ Root</text>
<text text-anchor="middle" x="268.78" y="-308.8" font-family="Times,serif" font-size="9.00">SuccessOnAll</text>
</g>
<!-- Tasks -->
<g id="node2" class="node">
<title>Tasks</title>
<polygon fill="cyan" stroke="black" points="295.78,-226.54 295.78,-241.46 279.96,-252 257.59,-252 241.78,-241.46 241.78,-226.54 257.59,-216 279.96,-216 295.78,-226.54"/>
<text text-anchor="middle" x="268.78" y="-231.8" font-family="Times,serif" font-size="9.00">Tasks</text>
</g>
<!-- Root&#45;&gt;Tasks -->
<g id="edge1" class="edge">
<title>Root&#45;&gt;Tasks</title>
<path fill="none" stroke="black" d="M268.78,-287.92C268.78,-279.72 268.78,-270.72 268.78,-262.49"/>
<polygon fill="black" stroke="black" points="272.28,-262.27 268.78,-252.27 265.28,-262.27 272.28,-262.27"/>
</g>
<!-- Mission Sequence -->
<g id="node3" class="node">
<title>Mission Sequence</title>
<polygon fill="orange" stroke="black" points="318.78,-180 218.78,-180 218.78,-144 318.78,-144 318.78,-180"/>
<text text-anchor="middle" x="268.78" y="-159.8" font-family="Times,serif" font-size="9.00">Mission Sequence</text>
</g>
<!-- Tasks&#45;&gt;Mission Sequence -->
<g id="edge2" class="edge">
<title>Tasks&#45;&gt;Mission Sequence</title>
<path fill="none" stroke="black" d="M268.78,-215.7C268.78,-207.98 268.78,-198.71 268.78,-190.11"/>
<polygon fill="black" stroke="black" points="272.28,-190.1 268.78,-180.1 265.28,-190.1 272.28,-190.1"/>
</g>
<!-- Mission1 -->
<g id="node4" class="node">
<title>Mission1</title>
<polygon fill="cyan" stroke="black" points="236.27,-82.54 236.27,-97.46 214.89,-108 184.66,-108 163.28,-97.46 163.28,-82.54 184.66,-72 214.89,-72 236.27,-82.54"/>
<text text-anchor="middle" x="199.78" y="-87.8" font-family="Times,serif" font-size="9.00">Mission1</text>
</g>
<!-- Mission Sequence&#45;&gt;Mission1 -->
<g id="edge3" class="edge">
<title>Mission Sequence&#45;&gt;Mission1</title>
<path fill="none" stroke="black" d="M251.72,-143.7C243.16,-135.01 232.64,-124.34 223.32,-114.89"/>
<polygon fill="black" stroke="black" points="225.67,-112.29 216.16,-107.62 220.69,-117.2 225.67,-112.29"/>
</g>
<!-- Mission2 -->
<g id="node7" class="node">
<title>Mission2</title>
<polygon fill="cyan" stroke="black" points="374.27,-82.54 374.27,-97.46 352.89,-108 322.66,-108 301.28,-97.46 301.28,-82.54 322.66,-72 352.89,-72 374.27,-82.54"/>
<text text-anchor="middle" x="337.78" y="-87.8" font-family="Times,serif" font-size="9.00">Mission2</text>
</g>
<!-- Mission Sequence&#45;&gt;Mission2 -->
<g id="edge6" class="edge">
<title>Mission Sequence&#45;&gt;Mission2</title>
<path fill="none" stroke="black" d="M285.83,-143.7C294.4,-135.01 304.91,-124.34 314.23,-114.89"/>
<polygon fill="black" stroke="black" points="316.86,-117.2 321.39,-107.62 311.88,-112.29 316.86,-117.2"/>
</g>
<!-- Mission1 Execution -->
<g id="node5" class="node">
<title>Mission1 Execution</title>
<ellipse fill="gray" stroke="black" cx="61.78" cy="-18" rx="61.55" ry="18"/>
<text text-anchor="middle" x="61.78" y="-15.8" font-family="Times,serif" font-size="9.00">Mission1 Execution</text>
</g>
<!-- Mission1&#45;&gt;Mission1 Execution -->
<g id="edge4" class="edge">
<title>Mission1&#45;&gt;Mission1 Execution</title>
<path fill="none" stroke="black" d="M175.1,-76.49C154.44,-66 124.56,-50.85 100.68,-38.73"/>
<polygon fill="black" stroke="black" points="102.02,-35.49 91.52,-34.09 98.85,-41.73 102.02,-35.49"/>
</g>
<!-- Mission1 Fallback -->
<g id="node6" class="node">
<title>Mission1 Fallback</title>
<ellipse fill="gray" stroke="black" cx="199.78" cy="-18" rx="57.97" ry="18"/>
<text text-anchor="middle" x="199.78" y="-15.8" font-family="Times,serif" font-size="9.00">Mission1 Fallback</text>
</g>
<!-- Mission1&#45;&gt;Mission1 Fallback -->
<g id="edge5" class="edge">
<title>Mission1&#45;&gt;Mission1 Fallback</title>
<path fill="none" stroke="black" d="M199.78,-71.7C199.78,-63.98 199.78,-54.71 199.78,-46.11"/>
<polygon fill="black" stroke="black" points="203.28,-46.1 199.78,-36.1 196.28,-46.1 203.28,-46.1"/>
</g>
<!-- Mission2 Execution -->
<g id="node8" class="node">
<title>Mission2 Execution</title>
<ellipse fill="gray" stroke="black" cx="337.78" cy="-18" rx="61.55" ry="18"/>
<text text-anchor="middle" x="337.78" y="-15.8" font-family="Times,serif" font-size="9.00">Mission2 Execution</text>
</g>
<!-- Mission2&#45;&gt;Mission2 Execution -->
<g id="edge7" class="edge">
<title>Mission2&#45;&gt;Mission2 Execution</title>
<path fill="none" stroke="black" d="M337.78,-71.7C337.78,-63.98 337.78,-54.71 337.78,-46.11"/>
<polygon fill="black" stroke="black" points="341.28,-46.1 337.78,-36.1 334.28,-46.1 341.28,-46.1"/>
</g>
<!-- Mission2 Fallback -->
<g id="node9" class="node">
<title>Mission2 Fallback</title>
<ellipse fill="gray" stroke="black" cx="475.78" cy="-18" rx="57.97" ry="18"/>
<text text-anchor="middle" x="475.78" y="-15.8" font-family="Times,serif" font-size="9.00">Mission2 Fallback</text>
</g>
<!-- Mission2&#45;&gt;Mission2 Fallback -->
<g id="edge8" class="edge">
<title>Mission2&#45;&gt;Mission2 Fallback</title>
<path fill="none" stroke="black" d="M362.45,-76.49C383.25,-65.93 413.39,-50.65 437.35,-38.49"/>
<polygon fill="black" stroke="black" points="439.2,-41.48 446.53,-33.83 436.03,-35.24 439.2,-41.48"/>
</g>
</g>
</svg>
